<svg xmlns="http://www.w3.org/2000/svg" id="Livello_1" viewBox="0 0 391.5 50.3"><defs><style> .st0 { fill: #fff; } </style></defs><path class="st0" d="M0,42.8h0c0,0,0,0,0-.1h0Z"></path><path class="st0" d="M35.4,26c-1-1-2.2-1.9-3.5-2.5-1.3-.7-2.6-1.2-4-1.6-1.3-.4-2.6-.7-3.9-.9-1.2-.3-2.3-.5-3.2-.7-1.2-.3-2.5-.6-3.8-.9-1.2-.3-2.4-.6-3.6-1.1-1-.3-1.9-.9-2.7-1.6-.6-.6-1-1.5-1-2.4s.3-1.8.9-2.5c.6-.7,1.4-1.3,2.2-1.7,1-.5,1.9-.8,2.9-1,.9-.2,1.8-.3,2.7-.3,2.2,0,4.5.5,6.6,1.3,2.4.9,4.6,2.2,6.6,3.6l5.1-7.2c-1.5-1-2.9-1.9-4.2-2.7-1.3-.8-2.6-1.4-4-1.9s-2.9-.9-4.4-1.1c-1.8-.3-3.6-.4-5.4-.4s-4.2.2-6.2.5c-2.1.4-4.1,1.2-5.9,2.3-1.8,1.1-3.3,2.6-4.4,4.4-1.2,2.1-1.7,4.6-1.7,7,0,1.7.2,3.4.9,5,.6,1.4,1.4,2.6,2.5,3.7,1,1.1,2.2,1.9,3.5,2.6,1.3.6,2.6,1.2,4,1.6,1.3.4,2.6.7,3.9,1,1.2.2,2.3.4,3.3.6,1.5.3,2.9.6,4.2.9,1.2.2,2.4.6,3.5,1.1.9.4,1.7,1,2.4,1.7.6.7.9,1.6.9,2.5s-.2,1.6-.6,2.3c-.5.8-1.1,1.5-1.8,2-.9.6-1.9,1.1-2.9,1.4-1.2.4-2.6.6-3.9.6-2.7,0-5.5-.6-8-1.8-2.6-1.2-5-2.7-7.4-4.3L0,42.8c1.5,1.1,2.9,2,4.3,2.9,3,1.9,6.3,3.2,9.7,3.8,2.2.4,4.4.6,6.6.6s5-.3,7.4-.9c2.1-.5,4.1-1.4,5.8-2.7,1.6-1.2,2.8-2.8,3.7-4.6.9-2,1.3-4.3,1.3-6.5.1-1.9-.2-3.8-.9-5.5-.6-1.4-1.4-2.7-2.5-3.8Z"></path><polygon class="st0" points="68.9 49.1 104.2 49.1 104.2 40.8 78 40.8 78 29.5 101.2 29.5 101.2 21.2 78 21.2 78 9.2 104.2 9.2 104.2 1.1 68.9 1.1 68.9 49.1"></polygon><path class="st0" d="M134.2,42.8v-.2c.1,0,.1,0,0,0v.2Z"></path><path class="st0" d="M169.7,25.9c-1-1-2.2-1.9-3.5-2.5-1.3-.7-2.6-1.2-4-1.6-1.3-.4-2.6-.7-3.9-.9-1.2-.3-2.3-.5-3.2-.7-1.2-.3-2.5-.6-3.8-.9-1.2-.3-2.4-.6-3.6-1.1-1-.3-1.9-.9-2.7-1.6-.6-.6-1-1.5-1-2.4s.3-1.8.9-2.5c.6-.7,1.4-1.3,2.2-1.7,1-.5,1.9-.8,2.9-1,.9-.2,1.8-.3,2.7-.3,2.2,0,4.5.4,6.6,1.2,2.4.9,4.6,2.2,6.6,3.6l5.1-7.2c-1.5-1-2.9-1.9-4.2-2.7s-2.6-1.4-4-1.9c-1.4-.5-2.9-.9-4.4-1.1-1.8-.3-3.6-.4-5.4-.4-2.1.1-4.2.3-6.3.7s-4.1,1.2-5.9,2.3c-1.8,1.1-3.3,2.6-4.4,4.4-1.2,2.1-1.7,4.6-1.7,7,0,1.7.2,3.4.9,5,.6,1.4,1.4,2.6,2.5,3.7,1,1.1,2.2,1.9,3.5,2.6,1.3.6,2.6,1.2,4,1.6,1.3.4,2.6.7,3.9,1,1.2.2,2.3.4,3.3.6,1.5.3,2.9.6,4.2.9,1.2.2,2.4.6,3.5,1.1.9.4,1.7,1,2.4,1.7.6.7.9,1.6.9,2.5s-.2,1.6-.6,2.3c-.5.8-1.1,1.5-1.8,2-.9.6-1.9,1.1-2.9,1.4-1.2.4-2.6.6-3.9.6-2.7,0-5.5-.6-8-1.8-2.6-1.2-5-2.7-7.4-4.3l-4.9,7.1c1.5,1.1,2.9,2,4.3,2.9,3,1.9,6.3,3.2,9.7,3.8,2.2.4,4.4.6,6.6.6s5-.3,7.4-.9c2.1-.5,4.1-1.4,5.8-2.7,1.6-1.2,2.8-2.8,3.7-4.6.9-2,1.3-4.3,1.3-6.5.1-1.9-.2-3.8-.9-5.5-.6-1.4-1.4-2.7-2.5-3.8Z"></path><path class="st0" d="M222.7,1.2l-24.5,47.9h9.9l3.7-7.5h22.6l3.7,7.5h10L223.6,1.2h-.9ZM216.3,33.6l6.9-14.5,6.8,14.5h-13.7Z"></path><path class="st0" d="M295.9,1.2l-24.6,47.9h10l3.7-7.5h22.6l3.7,7.5h10L296.8,1.2h-.9ZM289.4,33.6l6.9-14.5,6.8,14.5h-13.7Z"></path><polygon class="st0" points="381.8 1.2 381.8 30.2 350.3 1.2 349.3 1.2 349.3 49.1 358.4 49.1 358.4 20.6 390 49.1 391 49.1 391 1.2 381.8 1.2"></polygon></svg>